<svg width="18" height="14" viewBox="0 0 18 14" fill="none" xmlns="http://www.w3.org/2000/svg">
<path fill-rule="evenodd" clip-rule="evenodd" d="M17.0328 1.84041C16.4252 2.11761 15.7726 2.30418 15.0877 2.38898C15.7868 1.95808 16.3239 1.27594 16.5767 0.463425C15.9222 0.862264 15.1973 1.15192 14.4257 1.30801C13.8081 0.631971 12.9275 0.210607 11.9534 0.210607C10.0831 0.210607 8.56628 1.76886 8.56628 3.69018C8.56628 3.96313 8.59595 4.22867 8.65399 4.48335C5.8385 4.33759 3.34237 2.9516 1.67201 0.847423C1.3805 1.36154 1.21347 1.95887 1.21347 2.59648C1.21347 3.8036 1.81144 4.86854 2.72002 5.49303C2.16538 5.47448 1.64273 5.31813 1.18612 5.05709V5.10082C1.18612 6.7876 2.35473 8.19347 3.90255 8.51347C3.61879 8.59298 3.31954 8.63538 3.01178 8.63538C2.79354 8.63538 2.58097 8.61418 2.37459 8.5731C2.8054 9.95592 4.05656 10.9619 5.5386 10.99C4.37928 11.9228 2.91865 12.4793 1.3311 12.4793C1.05765 12.4793 0.788587 12.4634 0.523651 12.4308C2.02246 13.4183 3.80323 13.9944 5.71596 13.9944C11.946 13.9944 15.3531 8.69156 15.3531 4.09365C15.3531 3.9426 15.3498 3.79287 15.3433 3.64314C16.0053 3.15287 16.5798 2.53937 17.0338 1.84107" fill="#6188FF"/>
</svg>
